<svg width="21" height="21" viewBox="0 0 21 21" fill="none" xmlns="http://www.w3.org/2000/svg">
<rect opacity="0.6" x="3.6087" y="1.86957" width="17.3913" height="19.1304" rx="2" fill="#226CF5"/>
<path d="M17.3913 1H3.7382C3.18591 1 2.7382 1.44772 2.7382 2V7.32043C2.7382 8.90005 2.58225 10.4758 2.27262 12.0248L1.23907 17.1953C1.11539 17.8141 1.58867 18.3913 2.21967 18.3913H15.8323C16.309 18.3913 16.7194 18.0548 16.8129 17.5874L17.9252 12.0261C18.2352 10.4763 18.3913 8.89959 18.3913 7.31904V6.65217V4.04348V2.52174V2C18.3913 1.44771 17.9436 1 17.3913 1Z" fill="white"/>
<path d="M18.3913 1H3.7382C3.18591 1 2.7382 1.44772 2.7382 2V7.32043C2.7382 8.90005 2.58225 10.4758 2.27262 12.0248L1.23907 17.1953C1.11539 17.8141 1.58867 18.3913 2.21967 18.3913H15.8323C16.309 18.3913 16.7194 18.0549 16.8129 17.5874L17.9252 12.0261C18.2352 10.4763 18.3913 8.89959 18.3913 7.31904V6.65217M18.3913 4.04348V2.52174" stroke="#3B3B3B" stroke-width="1.5" stroke-linecap="round" stroke-linejoin="round"/>
<line x1="6.96741" y1="8.07611" x2="13.2935" y2="8.07611" stroke="#3B3B3B" stroke-width="1.5" stroke-linecap="round"/>
<line x1="6.96741" y1="10.6848" x2="13.2935" y2="10.6848" stroke="#3B3B3B" stroke-width="1.5" stroke-linecap="round"/>
<line x1="6.96741" y1="13.2935" x2="13.2935" y2="13.2935" stroke="#3B3B3B" stroke-width="1.5" stroke-linecap="round"/>
</svg>
