<svg width="40" height="40" viewBox="0 0 40 40" fill="none" xmlns="http://www.w3.org/2000/svg">
<rect x="0.5" y="0.5" width="39" height="39" rx="19.5" stroke="#939393" stroke-opacity="0.4"/>
<path d="M14 15.8C14 15.6408 14.0632 15.4882 14.1757 15.3757C14.2883 15.2632 14.4409 15.2 14.6 15.2H23C23.1591 15.2 23.3117 15.2632 23.4243 15.3757C23.5368 15.4882 23.6 15.6408 23.6 15.8C23.6 15.9591 23.5368 16.1117 23.4243 16.2242C23.3117 16.3368 23.1591 16.4 23 16.4H14.6C14.4409 16.4 14.2883 16.3368 14.1757 16.2242C14.0632 16.1117 14 15.9591 14 15.8ZM20.6 18.8C20.4409 18.8 20.2883 18.8632 20.1757 18.9757C20.0632 19.0882 20 19.2408 20 19.4C20 19.5591 20.0632 19.7117 20.1757 19.8242C20.2883 19.9368 20.4409 20 20.6 20H23C23.1591 20 23.3117 19.9368 23.4243 19.8242C23.5368 19.7117 23.6 19.5591 23.6 19.4C23.6 19.2408 23.5368 19.0882 23.4243 18.9757C23.3117 18.8632 23.1591 18.8 23 18.8H20.6ZM20 23C20 22.8408 20.0632 22.6882 20.1757 22.5757C20.2883 22.4632 20.4409 22.4 20.6 22.4H23C23.1591 22.4 23.3117 22.4632 23.4243 22.5757C23.5368 22.6882 23.6 22.8408 23.6 23C23.6 23.1591 23.5368 23.3117 23.4243 23.4242C23.3117 23.5368 23.1591 23.6 23 23.6H20.6C20.4409 23.6 20.2883 23.5368 20.1757 23.4242C20.0632 23.3117 20 23.1591 20 23ZM14.6 18.8C14.4409 18.8 14.2883 18.8632 14.1757 18.9757C14.0632 19.0882 14 19.2408 14 19.4V23C14 23.1591 14.0632 23.3117 14.1757 23.4242C14.2883 23.5368 14.4409 23.6 14.6 23.6H18.2C18.3591 23.6 18.5117 23.5368 18.6243 23.4242C18.7368 23.3117 18.8 23.1591 18.8 23V19.4C18.8 19.2408 18.7368 19.0882 18.6243 18.9757C18.5117 18.8632 18.3591 18.8 18.2 18.8H14.6ZM15.2 22.4V20H17.6V22.4H15.2ZM10.4 14C10.4 13.3635 10.6529 12.753 11.1029 12.3029C11.553 11.8528 12.1635 11.6 12.8 11.6H24.8C25.4365 11.6 26.047 11.8528 26.4971 12.3029C26.9471 12.753 27.2 13.3635 27.2 14V15.2C27.8365 15.2 28.447 15.4528 28.8971 15.9029C29.3471 16.353 29.6 16.9635 29.6 17.6V24.2C29.6 24.9956 29.2839 25.7587 28.7213 26.3213C28.1587 26.8839 27.3956 27.2 26.6 27.2H13.4C12.6043 27.2 11.8413 26.8839 11.2787 26.3213C10.7161 25.7587 10.4 24.9956 10.4 24.2V14ZM26 14C26 13.6817 25.8736 13.3765 25.6485 13.1514C25.4235 12.9264 25.1183 12.8 24.8 12.8H12.8C12.4817 12.8 12.1765 12.9264 11.9515 13.1514C11.7264 13.3765 11.6 13.6817 11.6 14V24.2C11.6 24.6774 11.7896 25.1352 12.1272 25.4728C12.4648 25.8103 12.9226 26 13.4 26H26.6C27.0774 26 27.5352 25.8103 27.8728 25.4728C28.2104 25.1352 28.4 24.6774 28.4 24.2V17.6C28.4 17.2817 28.2736 16.9765 28.0485 16.7514C27.8235 16.5264 27.5183 16.4 27.2 16.4V24.2C27.2 24.3591 27.1368 24.5117 27.0243 24.6242C26.9117 24.7368 26.7591 24.8 26.6 24.8C26.4409 24.8 26.2883 24.7368 26.1757 24.6242C26.0632 24.5117 26 24.3591 26 24.2V14Z" fill="#226CF5"/>
</svg>
